<svg width="22" height="16" viewBox="0 0 22 16" fill="none" xmlns="http://www.w3.org/2000/svg">
<path fill-rule="evenodd" clip-rule="evenodd" d="M18.185 0.666308L11.0009 0.5L3.81677 0.666308C2.36502 0.695809 1.13427 1.74233 0.871791 3.17046C0.284924 6.36355 0.284924 9.63686 0.871791 12.83C1.13427 14.2581 2.36502 15.3046 3.81677 15.3341L11.0009 15.5004L18.185 15.3341C19.6367 15.3046 20.8675 14.2581 21.1299 12.83C21.7168 9.63686 21.7168 6.36355 21.1299 3.17046C20.8675 1.74233 19.6367 0.695809 18.185 0.666308ZM20.0009 7.00018C20.0009 7.55247 19.5531 8.00018 19.0009 8.00018H3.00085C2.44857 8.00018 2.00085 7.55247 2.00085 7.00018C2.00085 6.4479 2.44857 6.00018 3.00085 6.00018H19.0009C19.5531 6.00018 20.0009 6.4479 20.0009 7.00018Z" fill="#164520"/>
</svg>
