<svg width="58" height="63" viewBox="0 0 58 63" fill="none" xmlns="http://www.w3.org/2000/svg">
<path d="M22.4605 0.711821C22.685 0.486184 22.9517 0.307166 23.2453 0.18502C23.5389 0.0628738 23.8536 0 24.1715 0C24.4894 0 24.8041 0.0628738 25.0977 0.18502C25.3913 0.307166 25.658 0.486184 25.8825 0.711821C31.8758 6.74002 38.5168 9.69597 45.9167 9.69597C46.5576 9.69597 47.1723 9.95124 47.6255 10.4056C48.0787 10.86 48.3333 11.4763 48.3333 12.1189V16.485C46.8395 15.6178 45.2024 15.0269 43.5 14.7405V14.4497C36.3467 13.907 29.8942 10.9317 24.1667 5.76601C18.4343 10.9317 11.9867 13.907 4.83333 14.4497V26.6612C4.83333 33.6101 6.58783 39.0859 9.76817 43.3502C12.0398 46.3934 15.1815 49.0101 19.3333 51.118V56.4678C6.54433 50.8709 0 40.8255 0 26.666V12.1189C0 11.4763 0.254613 10.86 0.707826 10.4056C1.16104 9.95124 1.77573 9.69597 2.41667 9.69597C9.81167 9.69597 16.4527 6.73518 22.4605 0.711821ZM31.4167 29.0793V33.9251H29C27.7181 33.9251 26.4887 34.4356 25.5823 35.3444C24.6759 36.2532 24.1667 37.4857 24.1667 38.7709V58.1542C24.1667 59.4394 24.6759 60.6719 25.5823 61.5807C26.4887 62.4895 27.7181 63 29 63H53.1667C54.4485 63 55.6779 62.4895 56.5844 61.5807C57.4908 60.6719 58 59.4394 58 58.1542V38.7709C58 37.4857 57.4908 36.2532 56.5844 35.3444C55.6779 34.4356 54.4485 33.9251 53.1667 33.9251H50.75V29.0793C50.75 26.5089 49.7316 24.0438 47.9187 22.2262C46.1058 20.4087 43.6471 19.3876 41.0833 19.3876C38.5196 19.3876 36.0608 20.4087 34.248 22.2262C32.4351 24.0438 31.4167 26.5089 31.4167 29.0793ZM36.25 33.9251V29.0793C36.25 27.7941 36.7592 26.5615 37.6657 25.6527C38.5721 24.744 39.8015 24.2334 41.0833 24.2334C42.3652 24.2334 43.5946 24.744 44.501 25.6527C45.4074 26.5615 45.9167 27.7941 45.9167 29.0793V33.9251H36.25ZM41.0833 44.8282C42.0447 44.8282 42.9668 45.2111 43.6466 45.8927C44.3264 46.5742 44.7083 47.4986 44.7083 48.4625C44.7083 49.4264 44.3264 50.3508 43.6466 51.0324C42.9668 51.714 42.0447 52.0969 41.0833 52.0969C40.1219 52.0969 39.1999 51.714 38.5201 51.0324C37.8403 50.3508 37.4583 49.4264 37.4583 48.4625C37.4583 47.4986 37.8403 46.5742 38.5201 45.8927C39.1999 45.2111 40.1219 44.8282 41.0833 44.8282Z" fill="white"/>
</svg>
