<svg width="498" height="406" viewBox="0 0 498 406" fill="none" xmlns="http://www.w3.org/2000/svg">
<g clip-path="url(#clip0_7_2)">
<path d="M30.4415 363.86C24.6812 363.86 19.5929 362.9 14.9846 360.98C10.3764 358.964 6.82418 356.179 4.13604 352.531C1.44789 348.787 0.103818 344.467 0.0078125 339.474H17.6728C17.8648 342.835 19.1129 345.523 21.225 347.443C23.3371 349.363 26.3132 350.419 30.0574 350.419C33.8977 350.419 36.9698 349.459 39.1779 347.635C41.2901 345.811 42.4421 343.411 42.4421 340.435C42.4421 337.938 41.6741 335.922 40.234 334.386C38.6979 332.85 36.8738 331.602 34.5697 330.738C32.3616 329.778 29.2894 328.818 25.3532 327.666C20.0729 326.13 15.7527 324.594 12.3925 323.058C9.0323 321.521 6.24815 319.217 3.84802 316.145C1.44789 313.073 0.199823 308.945 0.199823 303.761C0.199823 298.864 1.44789 294.64 3.84802 290.992C6.34416 287.44 9.70434 284.655 14.1206 282.735C18.5368 280.815 23.5291 279.855 29.1934 279.855C37.6419 279.855 44.4582 281.967 49.7385 286C55.0188 290.128 57.995 295.888 58.571 303.28H40.426C40.234 300.4 39.0819 298.096 36.8738 296.272C34.5697 294.448 31.6895 293.488 27.9453 293.488C24.7772 293.488 22.185 294.352 20.2649 295.984C18.3448 297.616 17.3848 300.016 17.3848 303.184C17.3848 305.297 18.1528 307.121 19.5929 308.561C21.033 310.097 22.8571 311.249 24.9692 312.113C27.1773 313.073 30.1535 314.033 34.0897 315.281C39.37 316.817 43.7862 318.353 47.1464 319.985C50.5066 321.521 53.3867 323.826 55.7868 326.994C58.283 330.162 59.435 334.29 59.435 339.378C59.435 343.699 58.379 347.827 56.0749 351.571C53.7707 355.315 50.5066 358.291 46.0903 360.5C41.6741 362.804 36.4898 363.86 30.4415 363.86Z" fill="white"/>
<path d="M129.519 281.007V294.352H107.629V363.092H91.2124V294.352H69.3232V281.007H129.519Z" fill="white"/>
<path d="M157.744 281.007V331.794C157.744 337.362 159.184 341.587 162.065 344.563C164.945 347.539 169.073 348.979 174.257 348.979C179.634 348.979 183.762 347.539 186.642 344.563C189.522 341.587 190.962 337.362 190.962 331.794V281.007H207.571V331.698C207.571 338.706 206.035 344.563 203.059 349.363C199.987 354.163 195.954 357.812 190.866 360.212C185.874 362.708 180.21 363.86 174.065 363.86C167.921 363.86 162.353 362.708 157.456 360.212C152.464 357.812 148.528 354.163 145.648 349.363C142.672 344.563 141.231 338.706 141.231 331.698V281.007H157.744Z" fill="white"/>
<path d="M274.103 281.007V294.352H239.829V315.377H266.038V328.434H239.829V363.092H223.412V281.007H274.103Z" fill="white"/>
<path d="M336.026 347.443H303.288L297.912 363.092H280.631L310.104 280.911H329.306L358.779 363.092H341.402L336.026 347.443ZM331.514 334.29L319.609 299.92L307.8 334.29H331.514Z" fill="white"/>
<path d="M398.142 363.86C392.477 363.86 387.293 362.9 382.685 360.98C378.077 358.964 374.524 356.179 371.836 352.531C369.148 348.787 367.804 344.467 367.708 339.474H385.373C385.565 342.835 386.813 345.523 388.925 347.443C391.037 349.363 394.013 350.419 397.758 350.419C401.598 350.419 404.67 349.459 406.878 347.635C409.086 345.811 410.142 343.411 410.142 340.435C410.142 337.938 409.374 335.922 407.934 334.386C406.398 332.85 404.574 331.602 402.366 330.738C400.062 329.778 396.99 328.818 393.053 327.666C387.773 326.13 383.453 324.594 380.093 323.058C376.829 321.521 373.948 319.217 371.548 316.145C369.148 313.073 367.996 308.945 367.996 303.761C367.996 298.864 369.148 294.64 371.548 290.992C374.044 287.44 377.405 284.655 381.821 282.735C386.237 280.815 391.229 279.855 396.894 279.855C405.342 279.855 412.158 281.967 417.439 286C422.815 290.128 425.695 295.888 426.271 303.28H408.126C408.03 300.4 406.782 298.096 404.574 296.272C402.366 294.448 399.39 293.488 395.646 293.488C392.477 293.488 389.885 294.352 387.965 295.984C386.045 297.616 385.085 300.016 385.085 303.184C385.085 305.297 385.853 307.121 387.293 308.561C388.733 310.097 390.557 311.249 392.669 312.113C394.877 313.073 397.854 314.033 401.79 315.281C407.166 316.817 411.486 318.353 414.847 319.985C418.207 321.521 421.087 323.826 423.583 326.994C425.983 330.162 427.135 334.29 427.135 339.378C427.135 343.699 426.079 347.827 423.775 351.571C421.471 355.315 418.207 358.291 413.791 360.5C409.374 362.804 404.19 363.86 398.142 363.86Z" fill="white"/>
<path d="M497.219 281.007V294.352H475.33V363.092H458.913V294.352H437.023V281.007H497.219Z" fill="white"/>
<path d="M43.2102 402.742H51.4666V405.334H40.042V381.525H43.2102V402.742Z" fill="white"/>
<path d="M67.883 384.021V391.989H76.5235V394.581H67.883V402.742H77.5795V405.334H64.7148V381.525H77.5795V384.021H67.883Z" fill="white"/>
<path d="M106.19 400.054H95.821L93.9969 405.334H90.6367L99.2772 381.717H102.829L111.374 405.334H108.11L106.19 400.054ZM105.326 397.462L101.005 385.461L96.7811 397.462H105.326Z" fill="white"/>
<path d="M137.583 405.334L131.919 395.638H128.175V405.334H125.103V381.525H132.783C134.607 381.525 136.047 381.813 137.295 382.485C138.543 383.061 139.503 383.925 140.079 384.981C140.751 386.037 141.039 387.189 141.039 388.533C141.039 390.165 140.559 391.605 139.599 392.853C138.639 394.101 137.295 394.966 135.375 395.35L141.327 405.334H137.583ZM128.175 393.141H132.783C134.415 393.141 135.759 392.661 136.527 391.893C137.391 391.029 137.775 389.877 137.775 388.533C137.775 387.093 137.391 386.037 136.623 385.269C135.759 384.501 134.511 384.117 132.783 384.117H128.175V393.141Z" fill="white"/>
<path d="M174.45 405.334H171.377L158.897 386.421V405.334H155.729V381.525H158.897L171.377 400.438V381.525H174.45V405.334Z" fill="white"/>
<path d="M192.786 381.525V405.334H189.714V381.525H192.786Z" fill="white"/>
<path d="M226.676 405.334H223.604L211.123 386.421V405.334H208.051V381.525H211.123L223.604 400.438V381.525H226.676V405.334Z" fill="white"/>
<path d="M259.894 388.437C259.222 386.997 258.262 385.941 257.014 385.173C255.766 384.405 254.326 384.021 252.694 384.021C251.062 384.021 249.526 384.405 248.181 385.173C246.837 385.941 245.877 387.093 245.109 388.437C244.341 389.877 243.957 391.509 243.957 393.429C243.957 395.254 244.341 396.886 245.109 398.326C245.877 399.766 246.837 400.822 248.181 401.59C249.526 402.358 251.062 402.742 252.694 402.742C254.998 402.742 256.918 402.07 258.454 400.63C259.894 399.286 260.758 397.366 261.046 394.966H251.542V392.469H264.31V394.87C264.214 396.79 263.542 398.614 262.486 400.246C261.43 401.878 260.086 403.126 258.358 404.086C256.726 405.046 254.806 405.526 252.694 405.526C250.486 405.526 248.469 404.95 246.645 403.99C244.821 402.934 243.381 401.494 242.325 399.67C241.269 397.846 240.789 395.734 240.789 393.429C240.789 391.125 241.269 389.013 242.325 387.189C243.381 385.269 244.821 383.829 246.645 382.773C248.469 381.813 250.486 381.237 252.694 381.237C255.19 381.237 257.494 381.909 259.414 383.157C261.334 384.405 262.774 386.133 263.638 388.437H259.894Z" fill="white"/>
<path d="M286.295 393.429C286.295 391.125 286.871 389.013 287.927 387.189C288.983 385.269 290.327 383.829 292.151 382.773C293.975 381.717 295.991 381.237 298.2 381.237C300.792 381.237 303 381.813 305.016 383.157C306.936 384.405 308.28 386.133 309.24 388.437H305.496C304.824 386.997 303.864 385.941 302.616 385.077C301.368 384.309 299.928 383.925 298.2 383.925C296.567 383.925 295.031 384.309 293.687 385.077C292.439 385.941 291.383 386.997 290.615 388.437C289.847 389.877 289.463 391.509 289.463 393.429C289.463 395.254 289.847 396.982 290.615 398.326C291.383 399.766 292.439 400.918 293.687 401.686C295.031 402.454 296.567 402.838 298.2 402.838C299.928 402.838 301.368 402.454 302.616 401.686C303.864 400.918 304.824 399.862 305.496 398.422H309.24C308.28 400.63 306.936 402.454 305.016 403.702C303 404.854 300.792 405.526 298.2 405.526C295.991 405.526 293.975 404.95 292.151 403.99C290.327 402.934 288.983 401.494 287.927 399.67C286.871 397.846 286.295 395.734 286.295 393.429Z" fill="white"/>
<path d="M326.809 384.021V391.989H335.546V394.581H326.809V402.742H336.506V405.334H323.737V381.525H336.506V384.021H326.809Z" fill="white"/>
<path d="M369.82 405.334H366.748L354.267 386.421V405.334H351.195V381.525H354.267L366.748 400.438V381.525H369.82V405.334Z" fill="white"/>
<path d="M399.677 381.525V384.021H393.245V405.334H390.173V384.021H383.645V381.525H399.677Z" fill="white"/>
<path d="M416.574 384.021V391.989H425.215V394.581H416.574V402.742H426.271V405.334H413.502V381.525H426.271V384.021H416.574Z" fill="white"/>
<path d="M453.441 405.334L447.777 395.638H444.032V405.334H440.864V381.525H448.545C450.369 381.525 451.905 381.813 453.153 382.485C454.401 383.061 455.265 383.925 455.937 384.981C456.513 386.037 456.801 387.189 456.801 388.533C456.801 390.165 456.321 391.605 455.457 392.853C454.497 394.101 453.057 394.966 451.137 395.35L457.089 405.334H453.441ZM444.032 393.141H448.545C450.273 393.141 451.521 392.661 452.385 391.893C453.153 391.029 453.633 389.877 453.633 388.533C453.633 387.093 453.249 386.037 452.385 385.269C451.521 384.501 450.273 384.117 448.545 384.117H444.032V393.141Z" fill="white"/>
<path fill-rule="evenodd" clip-rule="evenodd" d="M246.208 135.272H117.812L117.75 135.375C116.638 137.255 116 139.448 116 141.791C116 142.605 116.077 143.401 116.224 144.171L129.699 184.378L129.698 184.377L132.277 192.073L129.699 184.378C130.779 186.921 132.668 189.037 135.044 190.402C136.893 191.465 139.037 192.073 141.323 192.073H229.743L246.208 135.272L246.208 135.272Z" fill="white"/>
<path fill-rule="evenodd" clip-rule="evenodd" d="M248.677 53.2253V12.6224C248.677 5.6516 243.025 0 236.055 0C232.532 0 229.347 1.44314 227.057 3.77L118.095 134.777C117.988 134.939 117.885 135.104 117.786 135.272C116.674 137.152 116.036 139.345 116.036 141.688C116.036 142.712 116.158 143.709 116.389 144.663L129.699 184.378L129.699 184.377L129.699 184.378C130.779 186.921 132.668 189.037 135.044 190.402L135.075 190.384L248.677 53.2253V53.2253Z" fill="white"/>
<path fill-rule="evenodd" clip-rule="evenodd" d="M251.146 109.902H379.543L379.605 109.799C380.717 107.918 381.355 105.726 381.355 103.383C381.355 102.569 381.278 101.773 381.131 101.002L367.656 60.7955C366.576 58.2525 364.687 56.1365 362.311 54.7713C360.461 53.7088 358.317 53.101 356.031 53.101H267.612L251.146 109.902Z" fill="white"/>
<path fill-rule="evenodd" clip-rule="evenodd" d="M248.678 191.948V232.551C248.678 239.522 254.329 245.174 261.3 245.174C264.823 245.174 268.008 243.73 270.298 241.404L379.26 110.397C379.367 110.235 379.47 110.07 379.569 109.902C380.681 108.022 381.319 105.829 381.319 103.486C381.319 102.461 381.197 101.465 380.966 100.511L367.656 60.7955C366.576 58.2525 364.687 56.1365 362.311 54.7712L362.28 54.7898L248.678 191.948Z" fill="white"/>
</g>
<defs>
<clipPath id="clip0_7_2">
<rect width="497.226" height="405.526" fill="white"/>
</clipPath>
</defs>
</svg>
